<?xml version="1.0" encoding="UTF-8" standalone="no"?>
<!-- Created with Inkscape (http://www.inkscape.org/) -->

<svg
   id="svg3353"
   sodipodi:docname="mine.resized.svg"
   inkscape:export-filename="/home/roger/mis-dibujos/open/sea_mine.png"
   viewBox="0 0 511.99998 512.00001"
   sodipodi:version="0.32"
   inkscape:export-xdpi="90"
   version="1.0"
   inkscape:output_extension="org.inkscape.output.svg.inkscape"
   inkscape:export-ydpi="90"
   inkscape:version="1.4 (e7c3feb100, 2024-10-09)"
   width="512"
   height="512"
   xmlns:inkscape="http://www.inkscape.org/namespaces/inkscape"
   xmlns:sodipodi="http://sodipodi.sourceforge.net/DTD/sodipodi-0.dtd"
   xmlns="http://www.w3.org/2000/svg"
   xmlns:svg="http://www.w3.org/2000/svg"
   xmlns:rdf="http://www.w3.org/1999/02/22-rdf-syntax-ns#"
   xmlns:cc="http://creativecommons.org/ns#"
   xmlns:dc="http://purl.org/dc/elements/1.1/">
  <defs
     id="defs1" />
  <sodipodi:namedview
     id="base"
     bordercolor="#666666"
     inkscape:pageshadow="2"
     inkscape:guide-bbox="true"
     pagecolor="#ffffff"
     inkscape:window-height="1190"
     inkscape:zoom="0.5"
     inkscape:window-x="26"
     showgrid="false"
     borderopacity="1.0"
     inkscape:current-layer="g6770"
     inkscape:cx="293"
     inkscape:cy="69"
     showguides="true"
     inkscape:window-y="23"
     inkscape:window-width="1293"
     inkscape:pageopacity="0.0"
     inkscape:document-units="px"
     inkscape:showpageshadow="2"
     inkscape:pagecheckerboard="0"
     inkscape:deskcolor="#d1d1d1"
     inkscape:window-maximized="0" />
  <g
     id="layer1"
     inkscape:label="Capa 1"
     inkscape:groupmode="layer"
     transform="translate(-26.099,-55.866)">
    <g
       id="g6770"
       transform="translate(-242.12,-1231.2)">
      <path
         id="path6661"
         sodipodi:nodetypes="cccccccccsccccccscccccccccccccc"
         style="fill:#8a9da5;stroke:#000000;stroke-width:3.62351;stroke-linejoin:round"
         d="m 579.29365,1288.9116 -42.17861,50.5071 h -0.14298 c -31.91992,-2.0202 -62.85686,4.0405 -90.54104,17.0806 l -55.3505,-53.4457 15.94209,78.0564 c -22.53696,18.3662 -41.14202,41.8749 -53.93858,69.0569 l -83.05255,0.1841 67.23557,49.5886 c -0.21447,1.1021 -0.51829,2.204 -0.69702,3.4896 -4.25361,26.2636 -3.12765,52.3436 2.43063,76.7707 l -68.14704,50.3234 88.86104,3.3059 c 11.95656,21.3047 27.70205,40.222 46.5037,55.6496 l -31.83056,93.6676 83.15979,-63.7308 c 11.59911,4.4079 23.77014,7.8975 36.47734,10.1015 10.50891,1.8365 21.01782,2.5713 31.348,2.7548 l 38.44331,65.0165 19.6059,-74.3832 c 23.30547,-7.7138 44.82372,-19.8354 63.51814,-35.8141 l 75.47468,26.08 -38.26457,-67.955 c 14.54804,-22.2229 24.8961,-47.9356 29.61439,-76.0359 l 64.64408,-24.4271 -62.57089,-26.8146 c -2.69872,-30.8553 -12.45699,-60.0574 -27.8093,-85.5864 l 35.65523,-58.221 -63.98281,21.6723 c -21.73271,-22.0396 -48.71987,-39.1202 -79.42447,-48.4869 z" />
      <path
         id="path6673"
         sodipodi:nodetypes="cscssc"
         style="fill:#445057;stroke-width:1.81175"
         d="m 703.50609,1550.2626 c -50.36413,109.2789 -175.73826,146.3786 -287.36861,102.4834 -13.38635,-5.3263 -25.95057,-11.7544 -37.72841,-19.1008 19.06974,35.2631 49.84583,64.0979 89.36146,79.7093 89.3436,35.2631 189.66078,-10.6526 223.92196,-102.4834 9.34721,-25.1617 13.51146,-35.4468 11.8136,-60.6085 z" />
      <path
         id="path6678"
         style="opacity:0.30943;fill:#e4eaed;stroke-width:1.81175"
         d="m 447.14591,1365.8661 c -67.50365,16.8968 -104.14185,106.8912 -74.5632,165.1119 -1.07234,-77.3215 59.17516,-150.0518 124.53413,-169.3361 -16.69272,-2.204 -33.868,-0.9184 -49.97093,4.2242 z" />
      <path
         id="path6725"
         style="fill:#000000;stroke-width:1.81175"
         d="m 436.52977,1477.7161 c 2.78808,1.1021 5.43318,2.755 7.55998,5.3263 6.79147,7.7138 6.18381,19.6518 -1.37617,26.6309 -3.14552,2.9387 -7.04169,4.4079 -10.97359,4.7752 6.14807,2.204 13.27911,1.1021 18.46209,-3.6732 7.55997,-6.9792 8.16763,-19.1008 1.37616,-26.8146 -3.94977,-4.5915 -9.57955,-6.6119 -15.04847,-6.2446 z" />
      <g
         id="g3490"
         transform="matrix(3.1603575,-2.9218776,2.8431243,3.247694,-4817.5311,-1956.5416)">
        <path
           id="path6737"
           style="fill:#000000"
           d="m 379.63,1423.1 c 0.34,0.6 0.53,1.3 0.53,2.1 0,2.3 -1.94,4.3 -4.33,4.3 -1,0 -1.92,-0.4 -2.65,-0.9 0.74,1.3 2.17,2.2 3.81,2.2 2.39,0 4.33,-1.9 4.33,-4.3 0,-1.4 -0.67,-2.6 -1.69,-3.4 z" />
        <path
           id="path3472"
           style="fill:#e4eaed"
           d="m 374.24,1428.8 c -0.28,-0.5 -0.44,-1.1 -0.44,-1.7 0,-2 1.62,-3.7 3.62,-3.7 0.84,0 1.61,0.3 2.22,0.8 -0.62,-1.1 -1.81,-1.9 -3.18,-1.9 -2.01,0 -3.63,1.6 -3.63,3.6 0,1.2 0.56,2.2 1.41,2.9 z" />
      </g>
      <path
         id="path3474"
         style="fill:#e4eaed;stroke-width:1.81175"
         d="m 435.65403,1511.5099 c -2.35914,-0.7346 -4.55743,-2.2039 -6.34466,-4.2242 -5.68339,-6.6117 -5.1651,-16.5295 1.16169,-22.4066 2.62722,-2.3878 5.89786,-3.6734 9.18636,-4.0407 -5.14722,-1.8367 -11.11657,-0.7346 -15.45953,3.1223 -6.3268,5.8772 -6.84509,15.9785 -1.14383,22.4067 3.30638,3.8569 8.00679,5.5098 12.59997,5.1425 z" />
      <path
         id="path3468"
         sodipodi:nodetypes="ccccccccc"
         style="fill:#e4eaed;stroke-width:1.81175"
         d="m 341.34194,1533.182 -0.0536,3.8569 375.74709,7.5303 -0.0715,-4.0407 -54.34964,-3.8569 -52.65177,-0.7346 -15.58464,-0.7346 -126.89328,-3.1223 z" />
      <g
         id="g3494"
         transform="matrix(3.1603575,-2.9218776,2.8431243,3.247694,-4738.8931,-1956.5416)">
        <path
           id="path3496"
           style="fill:#000000"
           d="m 379.63,1423.1 c 0.34,0.6 0.53,1.3 0.53,2.1 0,2.3 -1.94,4.3 -4.33,4.3 -1,0 -1.92,-0.4 -2.65,-0.9 0.74,1.3 2.17,2.2 3.81,2.2 2.39,0 4.33,-1.9 4.33,-4.3 0,-1.4 -0.67,-2.6 -1.69,-3.4 z" />
        <path
           id="path3498"
           style="fill:#e4eaed"
           d="m 374.24,1428.8 c -0.28,-0.5 -0.44,-1.1 -0.44,-1.7 0,-2 1.62,-3.7 3.62,-3.7 0.84,0 1.61,0.3 2.22,0.8 -0.62,-1.1 -1.81,-1.9 -3.18,-1.9 -2.01,0 -3.63,1.6 -3.63,3.6 0,1.2 0.56,2.2 1.41,2.9 z" />
      </g>
      <g
         id="g3500"
         transform="matrix(3.2011064,-1.7484249,1.995084,3.8576353,-3685.6789,-3269.3937)">
        <path
           id="path3502"
           style="fill:#000000"
           d="m 379.63,1423.1 c 0.34,0.6 0.53,1.3 0.53,2.1 0,2.3 -1.94,4.3 -4.33,4.3 -1,0 -1.92,-0.4 -2.65,-0.9 0.74,1.3 2.17,2.2 3.81,2.2 2.39,0 4.33,-1.9 4.33,-4.3 0,-1.4 -0.67,-2.6 -1.69,-3.4 z" />
        <path
           id="path3504"
           style="fill:#e4eaed"
           d="m 374.24,1428.8 c -0.28,-0.5 -0.44,-1.1 -0.44,-1.7 0,-2 1.62,-3.7 3.62,-3.7 0.84,0 1.61,0.3 2.22,0.8 -0.62,-1.1 -1.81,-1.9 -3.18,-1.9 -2.01,0 -3.63,1.6 -3.63,3.6 0,1.2 0.56,2.2 1.41,2.9 z" />
      </g>
      <g
         id="g3506"
         transform="matrix(3.2011064,-1.7484249,1.995084,3.8576353,-3685.1427,-3338.8179)">
        <path
           id="path3508"
           style="fill:#000000"
           d="m 379.63,1423.1 c 0.34,0.6 0.53,1.3 0.53,2.1 0,2.3 -1.94,4.3 -4.33,4.3 -1,0 -1.92,-0.4 -2.65,-0.9 0.74,1.3 2.17,2.2 3.81,2.2 2.39,0 4.33,-1.9 4.33,-4.3 0,-1.4 -0.67,-2.6 -1.69,-3.4 z" />
        <path
           id="path3510"
           style="fill:#e4eaed"
           d="m 374.24,1428.8 c -0.28,-0.5 -0.44,-1.1 -0.44,-1.7 0,-2 1.62,-3.7 3.62,-3.7 0.84,0 1.61,0.3 2.22,0.8 -0.62,-1.1 -1.81,-1.9 -3.18,-1.9 -2.01,0 -3.63,1.6 -3.63,3.6 0,1.2 0.56,2.2 1.41,2.9 z" />
      </g>
      <g
         id="g3512"
         transform="matrix(3.1603575,-2.9218776,2.8431243,3.247694,-4727.991,-2039.8874)">
        <path
           id="path3514"
           style="fill:#000000"
           d="m 379.63,1423.1 c 0.34,0.6 0.53,1.3 0.53,2.1 0,2.3 -1.94,4.3 -4.33,4.3 -1,0 -1.92,-0.4 -2.65,-0.9 0.74,1.3 2.17,2.2 3.81,2.2 2.39,0 4.33,-1.9 4.33,-4.3 0,-1.4 -0.67,-2.6 -1.69,-3.4 z" />
        <path
           id="path3516"
           style="fill:#e4eaed"
           d="m 374.24,1428.8 c -0.28,-0.5 -0.44,-1.1 -0.44,-1.7 0,-2 1.62,-3.7 3.62,-3.7 0.84,0 1.61,0.3 2.22,0.8 -0.62,-1.1 -1.81,-1.9 -3.18,-1.9 -2.01,0 -3.63,1.6 -3.63,3.6 0,1.2 0.56,2.2 1.41,2.9 z" />
      </g>
      <g
         id="g3518"
         transform="matrix(2.9986133,-1.6025238,2.0429818,3.8174133,-3459.7731,-3262.782)">
        <path
           id="path3520"
           style="fill:#000000"
           d="m 379.63,1423.1 c 0.34,0.6 0.53,1.3 0.53,2.1 0,2.3 -1.94,4.3 -4.33,4.3 -1,0 -1.92,-0.4 -2.65,-0.9 0.74,1.3 2.17,2.2 3.81,2.2 2.39,0 4.33,-1.9 4.33,-4.3 0,-1.4 -0.67,-2.6 -1.69,-3.4 z" />
        <path
           id="path3522"
           style="fill:#e4eaed"
           d="m 374.24,1428.8 c -0.28,-0.5 -0.44,-1.1 -0.44,-1.7 0,-2 1.62,-3.7 3.62,-3.7 0.84,0 1.61,0.3 2.22,0.8 -0.62,-1.1 -1.81,-1.9 -3.18,-1.9 -2.01,0 -3.63,1.6 -3.63,3.6 0,1.2 0.56,2.2 1.41,2.9 z" />
      </g>
      <g
         id="g3524"
         transform="matrix(2.9986133,-1.6025238,2.0429818,3.8174133,-3459.7731,-3262.782)">
        <path
           id="path3526"
           style="fill:#000000"
           d="m 379.63,1423.1 c 0.34,0.6 0.53,1.3 0.53,2.1 0,2.3 -1.94,4.3 -4.33,4.3 -1,0 -1.92,-0.4 -2.65,-0.9 0.74,1.3 2.17,2.2 3.81,2.2 2.39,0 4.33,-1.9 4.33,-4.3 0,-1.4 -0.67,-2.6 -1.69,-3.4 z" />
        <path
           id="path3528"
           style="fill:#e4eaed"
           d="m 374.24,1428.8 c -0.28,-0.5 -0.44,-1.1 -0.44,-1.7 0,-2 1.62,-3.7 3.62,-3.7 0.84,0 1.61,0.3 2.22,0.8 -0.62,-1.1 -1.81,-1.9 -3.18,-1.9 -2.01,0 -3.63,1.6 -3.63,3.6 0,1.2 0.56,2.2 1.41,2.9 z" />
      </g>
      <g
         id="g3530"
         transform="matrix(2.9986133,-1.6025238,2.0429818,3.8174133,-3448.871,-3339.369)">
        <path
           id="path3532"
           style="fill:#000000"
           d="m 379.63,1423.1 c 0.34,0.6 0.53,1.3 0.53,2.1 0,2.3 -1.94,4.3 -4.33,4.3 -1,0 -1.92,-0.4 -2.65,-0.9 0.74,1.3 2.17,2.2 3.81,2.2 2.39,0 4.33,-1.9 4.33,-4.3 0,-1.4 -0.67,-2.6 -1.69,-3.4 z" />
        <path
           id="path3534"
           style="fill:#e4eaed"
           d="m 374.24,1428.8 c -0.28,-0.5 -0.44,-1.1 -0.44,-1.7 0,-2 1.62,-3.7 3.62,-3.7 0.84,0 1.61,0.3 2.22,0.8 -0.62,-1.1 -1.81,-1.9 -3.18,-1.9 -2.01,0 -3.63,1.6 -3.63,3.6 0,1.2 0.56,2.2 1.41,2.9 z" />
      </g>
      <g
         id="g3542"
         transform="matrix(2.7219502,-0.25450035,0.92356861,4.2091642,-1687.3956,-4328.2048)">
        <path
           id="path3544"
           style="fill:#000000"
           d="m 379.63,1423.1 c 0.34,0.6 0.53,1.3 0.53,2.1 0,2.3 -1.94,4.3 -4.33,4.3 -1,0 -1.92,-0.4 -2.65,-0.9 0.74,1.3 2.17,2.2 3.81,2.2 2.39,0 4.33,-1.9 4.33,-4.3 0,-1.4 -0.67,-2.6 -1.69,-3.4 z" />
        <path
           id="path3546"
           style="fill:#e4eaed"
           d="m 374.24,1428.8 c -0.28,-0.5 -0.44,-1.1 -0.44,-1.7 0,-2 1.62,-3.7 3.62,-3.7 0.84,0 1.61,0.3 2.22,0.8 -0.62,-1.1 -1.81,-1.9 -3.18,-1.9 -2.01,0 -3.63,1.6 -3.63,3.6 0,1.2 0.56,2.2 1.41,2.9 z" />
      </g>
      <g
         id="g3548"
         transform="matrix(2.7219502,-0.25450035,0.92356861,4.2091642,-1679.8893,-4401.486)">
        <path
           id="path3550"
           style="fill:#000000"
           d="m 379.63,1423.1 c 0.34,0.6 0.53,1.3 0.53,2.1 0,2.3 -1.94,4.3 -4.33,4.3 -1,0 -1.92,-0.4 -2.65,-0.9 0.74,1.3 2.17,2.2 3.81,2.2 2.39,0 4.33,-1.9 4.33,-4.3 0,-1.4 -0.67,-2.6 -1.69,-3.4 z" />
        <path
           id="path3552"
           style="fill:#e4eaed"
           d="m 374.24,1428.8 c -0.28,-0.5 -0.44,-1.1 -0.44,-1.7 0,-2 1.62,-3.7 3.62,-3.7 0.84,0 1.61,0.3 2.22,0.8 -0.62,-1.1 -1.81,-1.9 -3.18,-1.9 -2.01,0 -3.63,1.6 -3.63,3.6 0,1.2 0.56,2.2 1.41,2.9 z" />
      </g>
      <path
         id="path5580"
         style="fill:#445057;stroke-width:1.81175"
         d="m 420.37322,1683.1053 c -10.72338,15.6112 -38.42544,90.9127 -34.85098,85.4027 3.57446,-5.5098 81.31894,-62.445 75.95725,-66.1181 -5.36169,-3.6734 -38.42543,-18.3662 -41.10627,-19.2846 z" />
      <path
         id="path5582"
         style="fill:#445057;stroke-width:1.81175"
         d="m 527.60698,1709.7362 c 14.29783,40.4058 32.17012,66.1183 32.17012,66.1183 l 17.87229,-69.7915 -45.57434,3.6732" />
      <path
         id="path5584"
         style="fill:#445057;stroke-width:1.81175"
         d="m 636.62796,1675.7588 c 0,0 78.63809,33.0593 76.85086,29.3859 -1.78723,-3.6732 -41.10628,-66.1183 -41.10628,-66.1183 z" />
      <path
         id="path5586"
         style="fill:#e4eaed;stroke-width:1.81175"
         d="m 535.89079,1343.9038 c 0,0 6.95053,-1.9469 13.27016,-3.2454 6.31787,-1.2984 27.8093,-45.4545 27.8093,-45.4545 z" />
      <path
         id="path5588"
         style="fill:#e4eaed;stroke-width:1.81175"
         d="m 656.57344,1399.7481 c 0,0 2.53787,2.5974 6.32679,2.5974 3.78893,0 56.86964,-22.7263 54.34965,-22.7263 -2.53787,0 -60.03304,20.1293 -60.67644,20.1293 z" />
      <path
         id="path5590"
         style="fill:#e4eaed;stroke-width:1.81175"
         d="m 281.24278,1453.6436 c 5.05607,0 75.19409,0.6501 75.19409,0.6501 l -3.79071,6.4924 z" />
      <path
         id="path5592"
         sodipodi:nodetypes="ccccccccc"
         style="fill:#445057;stroke-width:1.81175"
         d="m 341.34194,1537.0389 -0.0536,3.8569 375.74709,7.5301 -0.0715,-4.0404 -54.34964,-3.857 -52.65177,-0.7346 -15.58464,-0.7347 -126.89328,-2.9386 z" />
    </g>
  </g>
  <metadata
     id="metadata1">
    <rdf:RDF>
      <cc:Work>
        <dc:format>image/svg+xml</dc:format>
        <dc:type
           rdf:resource="http://purl.org/dc/dcmitype/StillImage" />
        <cc:license
           rdf:resource="http://creativecommons.org/publicdomain/zero/1.0/" />
        <dc:publisher>
          <cc:Agent
             rdf:about="http://openclipart.org/">
            <dc:title>Openclipart</dc:title>
          </cc:Agent>
        </dc:publisher>
        <dc:date>2008-12-25T21:19:18</dc:date>
        <dc:description />
        <dc:source>https://openclipart.org/detail/20846/cartoon-sea-mine-by-rg1024</dc:source>
        <dc:creator>
          <cc:Agent>
            <dc:title>rg1024</dc:title>
          </cc:Agent>
        </dc:creator>
        <dc:subject>
          <rdf:Bag>
            <rdf:li>cartoon</rdf:li>
            <rdf:li>danger</rdf:li>
            <rdf:li>mine</rdf:li>
            <rdf:li>sea</rdf:li>
            <rdf:li>war</rdf:li>
          </rdf:Bag>
        </dc:subject>
      </cc:Work>
      <cc:License
         rdf:about="http://creativecommons.org/publicdomain/zero/1.0/">
        <cc:permits
           rdf:resource="http://creativecommons.org/ns#Reproduction" />
        <cc:permits
           rdf:resource="http://creativecommons.org/ns#Distribution" />
        <cc:permits
           rdf:resource="http://creativecommons.org/ns#DerivativeWorks" />
      </cc:License>
    </rdf:RDF>
  </metadata>
</svg>
